<svg width="128" height="128" viewBox="0 0 128 128" fill="none" xmlns="http://www.w3.org/2000/svg">
<rect x="3" y="3" width="122" height="122" rx="35" fill="black"/>
<rect x="3" y="3" width="122" height="122" rx="35" stroke="url(#paint0_linear_2281_113)" stroke-width="6"/>
<path d="M18.1138 69.5004C17.0738 69.5033 16.1067 69.3326 15.2124 68.9885C14.3314 68.6443 13.6032 68.1063 13.0278 67.3746C12.4658 66.6428 12.1232 65.7105 12 64.5775L15.64 64.5673C15.7344 64.9403 15.9086 65.2465 16.1626 65.4858C16.4165 65.7118 16.7303 65.8776 17.104 65.9832C17.4909 66.0888 17.9044 66.1409 18.3444 66.1397C18.6111 66.139 18.8843 66.1115 19.1642 66.0574C19.444 66.0033 19.6771 65.9026 19.8633 65.7555C20.0629 65.6082 20.1623 65.3946 20.1615 65.1146C20.161 64.9146 20.1005 64.7548 19.9802 64.6351C19.8732 64.5021 19.7129 64.3959 19.4993 64.3165C19.299 64.2237 19.0455 64.1444 18.7386 64.0786C18.6186 64.0523 18.4918 64.026 18.3584 63.9997C18.2383 63.9733 18.1183 63.947 17.9982 63.9207C17.8781 63.8943 17.7514 63.868 17.618 63.8417C16.9376 63.697 16.2838 63.5321 15.6566 63.3472C15.0293 63.149 14.4753 62.8905 13.9944 62.5719C13.5135 62.2532 13.1323 61.8276 12.8508 61.2951C12.5693 60.7625 12.4274 60.0896 12.4252 59.2762C12.4231 58.5296 12.5547 57.9025 12.8199 57.3951C13.0851 56.8744 13.4373 56.4601 13.8764 56.1522C14.3155 55.8309 14.7949 55.5896 15.3144 55.4281C15.834 55.2667 16.347 55.1586 16.8535 55.1038C17.36 55.0358 17.8132 55.0012 18.2132 55C19.1999 54.9973 20.0671 55.1815 20.8148 55.5528C21.5624 55.9107 22.1639 56.4423 22.6192 57.1477C23.0879 57.8531 23.3703 58.7056 23.4664 59.7053L19.9664 59.7151C19.9256 59.4219 19.8049 59.1756 19.6044 58.9762C19.4038 58.7634 19.1433 58.6041 18.823 58.4983C18.516 58.3792 18.1558 58.3202 17.7425 58.3214C17.5025 58.322 17.2759 58.3427 17.0627 58.3833C16.8495 58.4239 16.663 58.4844 16.5032 58.5648C16.3567 58.6452 16.237 58.7456 16.144 58.8658C16.051 58.9861 16.0048 59.1262 16.0052 59.2862C16.0058 59.4996 16.0863 59.6793 16.2467 59.8256C16.4205 59.9717 16.6675 60.0977 16.9878 60.2035C17.3214 60.3092 17.7284 60.4214 18.2087 60.5401C18.4355 60.5928 18.6557 60.6455 18.8692 60.6982C19.0826 60.7376 19.2961 60.7837 19.5096 60.8364C20.0966 60.9681 20.6437 61.1199 21.1508 61.2918C21.6713 61.4637 22.1253 61.6891 22.5127 61.968C22.9135 62.2469 23.2279 62.626 23.4559 63.1054C23.6839 63.5714 23.7989 64.1711 23.801 64.9044C23.8033 65.7444 23.6453 66.4582 23.327 67.0458C23.0086 67.62 22.5765 68.0879 22.0309 68.4494C21.4852 68.8109 20.8726 69.0793 20.1931 69.2545C19.5136 69.4164 18.8205 69.4984 18.1138 69.5004Z" fill="url(#paint1_linear_2281_113)"/>
<path d="M30.5545 69.4655C28.9412 69.4701 27.6868 69.0736 26.7912 68.2761C25.9089 67.4652 25.4655 66.2531 25.461 64.6398L25.4446 58.7798L28.9846 58.7699L29.0002 64.3499C29.0012 64.6965 29.0487 65.0164 29.1429 65.3095C29.237 65.5892 29.3976 65.8154 29.6248 65.9881C29.8653 66.1608 30.1789 66.2466 30.5655 66.2455C31.0055 66.2443 31.3186 66.1434 31.5047 65.9429C31.7041 65.7423 31.8234 65.4953 31.8626 65.2019C31.9151 64.8951 31.9409 64.6083 31.9402 64.3416L31.9246 58.7617L35.4446 58.7518L35.461 64.6118C35.4658 66.3318 35.0226 67.573 34.1314 68.3355C33.2535 69.0847 32.0612 69.4613 30.5545 69.4655Z" fill="url(#paint2_linear_2281_113)"/>
<path d="M37.3417 73.3066L37.301 58.7466L40.581 58.7374L40.7642 59.8969C41.2427 59.3756 41.7351 59.0142 42.2412 58.8128C42.7473 58.6114 43.3203 58.5098 43.9603 58.508C44.9737 58.5051 45.821 58.7494 46.5024 59.2409C47.1837 59.719 47.6989 60.3709 48.0479 61.1966C48.3968 62.0089 48.5727 62.9218 48.5755 63.9351C48.5784 64.9751 48.3944 65.9089 48.0234 66.7366C47.6657 67.5643 47.1275 68.2192 46.4089 68.7012C45.7035 69.1831 44.8376 69.4256 43.8109 69.4284C43.3976 69.4296 42.9974 69.3774 42.6104 69.2718C42.2369 69.1795 41.8965 69.0538 41.5894 68.8947C41.2956 68.7355 41.0551 68.5628 40.8679 68.3767L40.8817 73.2967L37.3417 73.3066ZM43.0819 66.2105C43.6152 66.209 44.0282 66.0945 44.3209 65.867C44.6136 65.6395 44.8128 65.359 44.9186 65.0253C45.0376 64.6917 45.0967 64.3715 45.0959 64.0648C45.0949 63.7048 45.0272 63.345 44.8929 62.9854C44.7585 62.6258 44.5377 62.333 44.2304 62.1072C43.9364 61.8681 43.5294 61.7492 43.0094 61.7507C42.5294 61.752 42.1297 61.8665 41.8104 62.094C41.491 62.3082 41.2517 62.5889 41.0927 62.936C40.9336 63.2698 40.8546 63.6234 40.8557 63.9967C40.8567 64.3567 40.931 64.7098 41.0786 65.0561C41.2396 65.389 41.4804 65.6683 41.801 65.8941C42.1349 66.1065 42.5619 66.2119 43.0819 66.2105Z" fill="url(#paint3_linear_2281_113)"/>
<path d="M55.0452 69.397C53.9652 69.4 53.018 69.1893 52.2034 68.765C51.4022 68.3272 50.7738 67.709 50.3182 66.9102C49.876 66.1115 49.6533 65.1587 49.6502 64.0521C49.6471 62.9454 49.8711 61.9781 50.3221 61.1502C50.7731 60.3089 51.4046 59.6538 52.2166 59.1849C53.0286 58.7159 53.9747 58.48 55.0547 58.4769C55.828 58.4748 56.5217 58.5928 57.1357 58.8311C57.7497 59.0694 58.2773 59.4146 58.7186 59.8667C59.1598 60.3188 59.4947 60.8645 59.7231 61.5039C59.9649 62.1432 60.087 62.8629 60.0892 63.6629C60.0898 63.8895 60.0771 64.1096 60.051 64.323C60.0383 64.523 60.0055 64.7364 59.9528 64.9632L53.1529 64.9823C53.1802 65.2355 53.2609 65.4753 53.3949 65.7016C53.5422 65.9279 53.7427 66.1073 53.9964 66.2399C54.2501 66.3725 54.5703 66.4383 54.9569 66.4372C55.2769 66.4363 55.5502 66.4022 55.7767 66.3349C56.0164 66.2543 56.2095 66.1537 56.3558 66.0333C56.5021 65.9129 56.5951 65.7927 56.6348 65.6725L60.0948 65.6629C59.9105 66.53 59.5659 67.2443 59.0608 67.8058C58.569 68.3538 57.9701 68.7555 57.2641 69.0108C56.5715 69.2661 55.8319 69.3948 55.0452 69.397ZM53.2064 62.6821L56.7664 62.6722C56.7658 62.4722 56.7053 62.2657 56.5847 62.0527C56.4774 61.8263 56.2902 61.6402 56.0231 61.4942C55.7694 61.3483 55.4292 61.2759 55.0025 61.2771C54.5892 61.2782 54.2494 61.3525 53.9831 61.4999C53.7169 61.6474 53.5174 61.8346 53.3847 62.0616C53.2653 62.2753 53.2059 62.4821 53.2064 62.6821Z" fill="url(#paint4_linear_2281_113)"/>
<path d="M61.5882 69.2187L61.5587 58.6787L64.6587 58.6701L64.9015 59.6694C65.1671 59.282 65.4596 59.0011 65.7791 58.8269C66.0986 58.6527 66.4183 58.5451 66.7382 58.5042C67.0581 58.4633 67.3514 58.4425 67.618 58.4418C67.8447 58.4411 68.0514 58.4472 68.2381 58.46C68.4248 58.4595 68.5448 58.4658 68.5982 58.479L68.6077 61.899L67.9277 61.9009C67.4344 61.9023 66.9679 61.9703 66.5283 62.1048C66.102 62.226 65.756 62.467 65.4903 62.8277C65.2379 63.1751 65.1128 63.7021 65.1147 64.4088L65.1282 69.2088L61.5882 69.2187Z" fill="url(#paint5_linear_2281_113)"/>
<path d="M69.7132 69.1959L69.6837 58.656L72.9436 58.6469L73.1463 59.6063C73.4787 59.2587 73.8313 59.0044 74.2042 58.8433C74.5904 58.6689 74.9634 58.5545 75.3232 58.5002C75.6831 58.4459 75.9897 58.4183 76.243 58.4176C77.2297 58.4149 78.0036 58.6394 78.5649 59.0911C79.1395 59.5429 79.5479 60.1417 79.7899 60.8877C80.032 61.6337 80.1543 62.4534 80.1568 63.3467L80.1731 69.1667L76.6331 69.1766L76.6177 63.6566C76.6171 63.4433 76.5898 63.2233 76.5358 62.9968C76.4952 62.7569 76.4145 62.5372 76.294 62.3375C76.1868 62.1378 76.033 61.9782 75.8326 61.8588C75.6323 61.726 75.3721 61.6601 75.0521 61.661C74.6388 61.6621 74.2923 61.7564 74.0129 61.9439C73.7467 62.1313 73.5474 62.3852 73.415 62.7056C73.2959 63.0126 73.2368 63.3594 73.2379 63.7461L73.2531 69.186L69.7132 69.1959Z" fill="url(#paint6_linear_2281_113)"/>
<path d="M87.1387 69.3072C86.0987 69.3101 85.1581 69.1061 84.317 68.6951C83.4891 68.2841 82.8274 67.6792 82.3319 66.8806C81.8363 66.0687 81.5868 65.0827 81.5836 63.9227C81.5803 62.736 81.8241 61.7354 82.3152 60.9206C82.8195 60.0926 83.4845 59.464 84.3099 59.0351C85.1354 58.6061 86.0481 58.3902 87.0481 58.3874C88.0748 58.3845 88.9954 58.6019 89.81 59.0397C90.6379 59.4773 91.293 60.1088 91.7753 60.9342C92.2709 61.7595 92.5204 62.7654 92.5237 63.9521C92.5269 65.0987 92.2963 66.0727 91.8319 66.874C91.3675 67.6753 90.7292 68.2838 89.917 68.6994C89.1048 69.1017 88.1787 69.3043 87.1387 69.3072ZM87.0695 66.0274C87.5762 66.0259 87.9759 65.9182 88.2686 65.704C88.5613 65.4898 88.7673 65.2226 88.8864 64.9023C89.0054 64.5686 89.0645 64.2418 89.0636 63.9218C89.0627 63.6018 89.0018 63.2686 88.8808 62.9223C88.7599 62.5759 88.5524 62.2832 88.2584 62.044C87.9777 61.8048 87.5774 61.6859 87.0574 61.6874C86.5507 61.6888 86.1444 61.8099 85.8384 62.0508C85.5457 62.2916 85.3399 62.5855 85.2208 62.9325C85.1018 63.2662 85.0427 63.5997 85.0436 63.933C85.0446 64.2664 85.1055 64.5995 85.2264 64.9325C85.3607 65.2521 85.5747 65.5182 85.8687 65.7307C86.1626 65.9299 86.5628 66.0288 87.0695 66.0274Z" fill="url(#paint7_linear_2281_113)"/>
<path d="M96.4299 69.1212L92.9404 58.5909L96.7804 58.5802L98.7823 66.3946L100.76 58.569L104.58 58.5583L101.15 69.108L96.4299 69.1212Z" fill="url(#paint8_linear_2281_113)"/>
<path d="M108.776 69.2466C108.282 69.248 107.815 69.1826 107.375 69.0505C106.935 68.9184 106.541 68.7195 106.193 68.4538C105.859 68.1881 105.592 67.8555 105.391 67.4561C105.189 67.0567 105.088 66.5836 105.087 66.0369C105.084 65.2369 105.249 64.6098 105.581 64.1555C105.927 63.7012 106.386 63.3666 106.959 63.1517C107.545 62.9367 108.204 62.8015 108.937 62.7461C109.684 62.6774 110.457 62.6419 111.257 62.6397L111.737 62.6383C111.736 62.385 111.676 62.1585 111.555 61.9588C111.435 61.7592 111.261 61.5996 111.034 61.4803C110.82 61.3609 110.553 61.3016 110.233 61.3025C110.007 61.3031 109.787 61.3371 109.574 61.4044C109.361 61.4716 109.181 61.5655 109.034 61.6859C108.901 61.7929 108.822 61.9265 108.796 62.0865L105.276 62.0964C105.354 61.4428 105.546 60.8823 105.851 60.4148C106.156 59.9339 106.542 59.5462 107.008 59.2515C107.473 58.9436 107.993 58.7154 108.566 58.5672C109.152 58.4189 109.758 58.3438 110.385 58.3421C111.932 58.3377 113.1 58.7678 113.889 59.6323C114.691 60.4834 115.095 61.7422 115.099 63.4089L115.115 69.0689L111.855 69.078L111.851 67.698C111.506 68.219 111.114 68.5867 110.674 68.8013C110.248 69.0158 109.855 69.1436 109.495 69.1846C109.149 69.2256 108.909 69.2462 108.776 69.2466ZM109.728 66.5439C110.061 66.543 110.381 66.4621 110.687 66.3013C111.007 66.127 111.266 65.913 111.466 65.6591C111.678 65.4052 111.784 65.1515 111.783 64.8982L111.783 64.8182L109.803 64.8237C109.643 64.8242 109.49 64.8446 109.343 64.885C109.197 64.9121 109.064 64.9591 108.944 65.0261C108.837 65.0931 108.751 65.18 108.685 65.2869C108.618 65.3937 108.585 65.5271 108.586 65.6871C108.586 65.8738 108.633 66.0337 108.727 66.1667C108.834 66.2864 108.974 66.3794 109.148 66.4456C109.321 66.5118 109.515 66.5445 109.728 66.5439Z" fill="url(#paint9_linear_2281_113)"/>
<path d="M56.7494 50.176V42.528H58.1574V41.168H59.5654V39.792H61.6134V41.168H63.0214V42.528H64.4454V50.176H62.3974V47.44H58.7814V50.176H56.7494ZM58.7814 45.248H62.3974V43.344H60.9894V41.984H60.1894V43.344H58.7814V45.248ZM66.3901 50.176V48H67.7981V41.984H66.3901V39.792H71.2541V41.984H69.8301V48H71.2541V50.176H66.3901ZM20.1557 88.176V79.168H21.5637V77.792H26.4277V79.168H27.8517V84.064H26.4277V85.44H22.1877V88.176H20.1557ZM22.1877 83.248H25.8037V79.984H22.1877V83.248ZM29.4838 88.176V77.792H31.5158V88.176H29.4838ZM34.5637 88.176V86.816H33.1557V81.904H34.5637V80.528H39.4277V81.904H40.8517V86H42.2757V88.176H40.2277V86.816H39.4277V88.176H34.5637ZM35.1877 86H38.8037V82.704H35.1877V86ZM44.5168 90.912V89.552H43.1088V87.376H45.1408V88.736H48.7728V86.816H44.5168V85.44H43.1088V80.528H45.1408V84.624H48.7728V80.528H50.8048V89.552H49.3968V90.912H44.5168ZM54.1574 90.912V89.552H52.7494V87.376H54.7814V88.736H58.4134V86.816H54.1574V85.44H52.7494V81.904H54.1574V80.528H59.0374V81.904H60.4454V89.552H59.0374V90.912H54.1574ZM54.7814 84.624H58.4134V82.704H54.7814V84.624ZM62.3901 88.176V81.904H63.7981V80.528H68.6621V81.904H70.0861V84.064H68.0381V82.704H64.4221V88.176H62.3901ZM72.9543 88.176V86.816H71.5463V81.904H72.9543V80.528H77.8183V81.904H79.2423V86.816H77.8183V88.176H72.9543ZM73.5783 86H77.1943V82.704H73.5783V86ZM82.5949 88.176V86.816H81.1869V80.528H83.2189V86H86.8349V80.528H88.8829V86.816H87.4589V88.176H82.5949ZM90.8276 88.176V80.528H97.0996V81.904H98.5236V88.176H96.4756V82.704H92.8596V88.176H90.8276ZM101.564 88.176V86.816H100.156V81.904H101.564V80.528H105.82V77.792H107.868V86.816H106.428V88.176H101.564ZM102.188 86H105.804V82.704H102.188V86Z" fill="url(#paint10_linear_2281_113)"/>
<defs>
<linearGradient id="paint0_linear_2281_113" x1="0" y1="-1.52588e-05" x2="128" y2="128" gradientUnits="userSpaceOnUse">
<stop stop-color="#AA80FF"/>
<stop offset="1" stop-color="#FF80D5"/>
</linearGradient>
<linearGradient id="paint1_linear_2281_113" x1="12" y1="55" x2="18.3015" y2="90.4944" gradientUnits="userSpaceOnUse">
<stop stop-color="#AA80FF"/>
<stop offset="1" stop-color="#FF80D5"/>
</linearGradient>
<linearGradient id="paint2_linear_2281_113" x1="12" y1="55" x2="18.3015" y2="90.4944" gradientUnits="userSpaceOnUse">
<stop stop-color="#AA80FF"/>
<stop offset="1" stop-color="#FF80D5"/>
</linearGradient>
<linearGradient id="paint3_linear_2281_113" x1="12" y1="55" x2="18.3015" y2="90.4944" gradientUnits="userSpaceOnUse">
<stop stop-color="#AA80FF"/>
<stop offset="1" stop-color="#FF80D5"/>
</linearGradient>
<linearGradient id="paint4_linear_2281_113" x1="12" y1="55" x2="18.3015" y2="90.4944" gradientUnits="userSpaceOnUse">
<stop stop-color="#AA80FF"/>
<stop offset="1" stop-color="#FF80D5"/>
</linearGradient>
<linearGradient id="paint5_linear_2281_113" x1="12" y1="55" x2="18.3015" y2="90.4944" gradientUnits="userSpaceOnUse">
<stop stop-color="#AA80FF"/>
<stop offset="1" stop-color="#FF80D5"/>
</linearGradient>
<linearGradient id="paint6_linear_2281_113" x1="12" y1="55" x2="18.3015" y2="90.4944" gradientUnits="userSpaceOnUse">
<stop stop-color="#AA80FF"/>
<stop offset="1" stop-color="#FF80D5"/>
</linearGradient>
<linearGradient id="paint7_linear_2281_113" x1="12" y1="55" x2="18.3015" y2="90.4944" gradientUnits="userSpaceOnUse">
<stop stop-color="#AA80FF"/>
<stop offset="1" stop-color="#FF80D5"/>
</linearGradient>
<linearGradient id="paint8_linear_2281_113" x1="12" y1="55" x2="18.3015" y2="90.4944" gradientUnits="userSpaceOnUse">
<stop stop-color="#AA80FF"/>
<stop offset="1" stop-color="#FF80D5"/>
</linearGradient>
<linearGradient id="paint9_linear_2281_113" x1="12" y1="55" x2="18.3015" y2="90.4944" gradientUnits="userSpaceOnUse">
<stop stop-color="#AA80FF"/>
<stop offset="1" stop-color="#FF80D5"/>
</linearGradient>
<linearGradient id="paint10_linear_2281_113" x1="19" y1="35" x2="70.5305" y2="116.364" gradientUnits="userSpaceOnUse">
<stop stop-color="#AA80FF"/>
<stop offset="1" stop-color="#FF80D5"/>
</linearGradient>
</defs>
</svg>
